<svg width="97" height="98" xmlns="http://www.w3.org/2000/svg" xmlns:xlink="http://www.w3.org/1999/xlink" xml:space="preserve" overflow="hidden"><g transform="translate(-356 -278)"><g><g><g><g><path d="M431.005 361 431.005 287 379.005 287 379.005 361 367.005 361 367.005 367 379.005 367 381.004 367 385.005 367 385.005 293 425.005 293 425.005 367 429.005 367 431.005 367 443.005 367 443.005 361 431.005 361Z" fill="#000000" fill-rule="nonzero" fill-opacity="1"/><path d="M388.005 367 422.005 367 422.005 296 388.005 296ZM407 331 412.684 331C413.236 329.438 414.95 328.619 416.512 329.172 418.074 329.724 418.893 331.438 418.341 333 417.789 334.562 416.074 335.381 414.512 334.828 413.658 334.526 412.986 333.854 412.684 333L407 333Z" fill="#000000" fill-rule="nonzero" fill-opacity="1"/></g></g></g></g></g></svg>
