<svg width="98" height="98" xmlns="http://www.w3.org/2000/svg" xmlns:xlink="http://www.w3.org/1999/xlink" xml:space="preserve" overflow="hidden"><g transform="translate(-866 -182)"><g><g><g><g><path d="M939.9 229.5C936.4 233.1 933.1 235.4 925.9 236.2 927.8 234.3 930 232.4 931.9 230.1 932.7 229.2 934.2 227.2 934.2 227.1 935.9 224.3 936.9 221.1 936.9 217.6L936.9 204.6 943.9 204.6 943.9 219.8C944 220 944.2 225 939.9 229.5ZM890.2 229.5C885.8 225 886 220 886 219.8L886 204.5 893 204.5 893 217.5C893 221 894 224.2 895.7 227 895.7 227.1 897.2 229.2 898 230 900 232.3 902.1 234.2 904 236.1 897 235.3 893.6 233 890.2 229.5ZM950 219.5 950 198.5 937 198.5 937 191.5 915 191.5 893 191.5 893 198.5 880 198.5 880 219.4C880 220.4 880 227.3 885.7 233.4 891.2 239.2 897.9 242.2 909.6 242.4 910.5 243.9 911 245.6 911 247.4L911 260.4 906 260.4C903.8 260.4 902 262.2 902 264.4L897 264.4C894.8 264.4 893 266.2 893 268.4L893 270.4 937 270.4 937 268.4C937 266.2 935.2 264.4 933 264.4L928 264.4C928 262.2 926.2 260.4 924 260.4L919 260.4 919 247.5C919 245.7 919.5 244 920.4 242.5 932.1 242.3 938.8 239.2 944.3 233.5 950 227.5 950 220.5 950 219.5Z" fill="#000000" fill-rule="nonzero" fill-opacity="1"/></g></g></g></g></g></svg>