<svg width="97" height="97" xmlns="http://www.w3.org/2000/svg" xmlns:xlink="http://www.w3.org/1999/xlink" xml:space="preserve" overflow="hidden"><g transform="translate(-356 -120)"><g><g><g><g><path d="M431.005 202.999 431.005 128.999 379.005 128.999 379.005 202.999 367.005 202.999 367.005 208.999 379.005 208.999 381.004 208.999 385.005 208.999 385.005 134.999 425.005 134.999 425.005 208.999 429.005 208.999 431.005 208.999 443.005 208.999 443.005 202.999 431.005 202.999Z" fill="#000000" fill-rule="nonzero" fill-opacity="1"/><path d="M388.005 209 417.005 205 417.005 142 388.005 138ZM406 173 410.45 173C410.653 171.916 411.552 171.099 412.65 171 413.951 171 415 172.343 415 174 415 175.657 413.949 177 412.652 177 411.553 176.901 410.655 176.084 410.452 175L406 175Z" fill="#000000" fill-rule="nonzero" fill-opacity="1"/></g></g></g></g></g></svg>