<svg width="98" height="96" xmlns="http://www.w3.org/2000/svg" xmlns:xlink="http://www.w3.org/1999/xlink" xml:space="preserve" overflow="hidden"><g transform="translate(-442 -428)"><g><g><g><g><path d="M534.288 465.022C534.226 464.125 533.574 463.38 532.693 463.2L522.119 461.041C521.461 460.905 520.779 461.11 520.306 461.586L518.17 463.721 503.97 449.521C503.799 452.431 502.228 455.077 499.756 456.621L512.513 469.378 510.45 471.442C509.981 471.911 509.775 472.581 509.9 473.232L511.945 483.916C512.116 484.809 512.869 485.474 513.776 485.535L524.382 486.242C524.427 486.242 524.472 486.247 524.517 486.247 525.622 486.283 526.546 485.417 526.583 484.312 526.619 483.208 525.753 482.283 524.648 482.247L515.582 481.647 514.027 473.522 522.374 465.175 530.4 466.81 531.006 475.894C531.079 476.997 532.033 477.832 533.136 477.758 534.239 477.685 535.073 476.731 535 475.628Z" fill="#000000" fill-rule="nonzero" fill-opacity="1"/><path d="M485.941 478.941C485.942 475.727 485.023 472.579 483.292 469.87L476.236 478.3C472.585 482.677 466.077 483.265 461.701 479.613 457.324 475.962 456.736 469.455 460.387 465.078 460.784 464.602 461.224 464.162 461.7 463.765L461.96 463.547C455.931 466.298 452.062 472.314 452.06 478.941L452.06 498 485.941 498Z" fill="#000000" fill-rule="nonzero" fill-opacity="1"/><path d="M486 449C486 448.391 486.062 447.784 486.184 447.188L463.623 466.065C460.524 468.661 460.117 473.278 462.713 476.377 465.31 479.476 469.927 479.883 473.025 477.287 473.355 477.011 473.659 476.706 473.935 476.377L490.388 456.714C487.671 455.093 486.005 452.164 486 449ZM470.923 471.906C470.142 472.687 468.876 472.687 468.095 471.906 467.313 471.125 467.313 469.859 468.094 469.078 468.875 468.297 470.141 468.297 470.923 469.078 470.923 469.078 470.923 469.078 470.923 469.078 471.704 469.859 471.704 471.125 470.923 471.906Z" fill="#000000" fill-rule="nonzero" fill-opacity="1"/><path d="M486 502 452 502C449.791 502 448 503.791 448 506L448 510 490 510 490 506C490 503.791 488.209 502 486 502Z" fill="#000000" fill-rule="nonzero" fill-opacity="1"/><path d="M495 443C491.686 443 489 445.686 489 449 489 452.314 491.686 455 495 455 498.314 455 501 452.314 501 449 501 445.686 498.314 443 495 443ZM495 450.5C494.172 450.5 493.5 449.828 493.5 449 493.5 448.172 494.172 447.5 495 447.5 495.828 447.5 496.5 448.172 496.5 449 496.5 449.828 495.828 450.5 495 450.5Z" fill="#000000" fill-rule="nonzero" fill-opacity="1"/></g></g></g></g></g></svg>